<?xml version="1.0" standalone="no"?>
<!DOCTYPE svg PUBLIC "-//W3C//DTD SVG 20010904//EN"
 "http://www.w3.org/TR/2001/REC-SVG-20010904/DTD/svg10.dtd">
<svg version="1.0" xmlns="http://www.w3.org/2000/svg"
 width="1307.000000pt" height="1307.000000pt" viewBox="0 0 1307.000000 1307.000000"
 preserveAspectRatio="xMidYMid meet">
<metadata>
Created by potrace 1.11, written by Peter Selinger 2001-2013
</metadata>
<g transform="translate(0.000000,1307.000000) scale(0.100000,-0.100000)"
fill="#000000" stroke="none">
<path d="M1542 13058 c-16 -16 -17 -7889 -2 -8238 23 -514 95 -916 245 -1365
205 -617 481 -1118 889 -1620 267 -328 719 -742 1037 -950 9 -5 47 -31 85 -56
539 -361 1245 -639 1886 -743 411 -67 746 -89 1078 -70 755 44 1345 195 1985
509 360 177 613 337 915 579 308 248 509 447 767 761 401 489 707 1068 907
1716 68 218 126 502 181 884 l26 180 -3 4210 -3 4210 -4990 3 c-3874 1 -4994
-1 -5003 -10z m9918 -1178 l0 -1110 -4563 0 c-2510 0 -4726 3 -4924 7 l-360 6
-5 536 c-3 295 -3 791 0 1104 l5 567 4923 0 4924 0 0 -1110z m-3 -4282 l-2
-3093 -38 -215 c-73 -418 -140 -686 -239 -950 -267 -714 -636 -1290 -1156
-1808 -445 -442 -875 -741 -1456 -1012 -454 -211 -936 -343 -1476 -405 -193
-21 -439 -37 -476 -31 l-31 6 -7 125 c-3 69 -6 2453 -6 5300 l1 5175 2444 0
2445 0 -3 -3092z m-5573 253 c84 -7 105 -27 68 -63 l-23 -23 -1253 -5 c-690
-3 -1258 -9 -1263 -13 -8 -8 -39 -236 -218 -1602 -81 -617 -180 -1367 -228
-1719 -13 -96 -30 -122 -64 -100 -28 17 -80 191 -308 1039 -31 116 -114 419
-185 675 -71 256 -148 541 -171 634 l-42 169 22 18 c12 10 28 16 36 13 25 -10
108 -291 345 -1169 212 -783 290 -1049 304 -1027 4 6 43 289 86 629 44 340
121 933 170 1318 106 822 159 1207 168 1217 4 4 41 9 82 11 135 6 2403 5 2474
-2z m-1485 -276 c84 -20 150 -57 212 -119 68 -68 97 -128 110 -229 19 -146 5
-244 -72 -490 -22 -71 -39 -133 -37 -138 2 -5 23 21 48 58 273 407 468 547
645 463 110 -53 221 -201 245 -329 44 -236 -64 -493 -243 -581 -107 -52 -223
-50 -391 7 -104 35 -105 38 27 -124 145 -178 202 -291 201 -403 0 -81 -29
-146 -91 -207 -61 -59 -114 -77 -213 -71 -69 4 -92 11 -164 46 -98 49 -150
102 -201 203 -48 94 -63 164 -71 332 -4 81 -10 147 -13 147 -4 0 -113 -107
-243 -237 -182 -183 -242 -249 -258 -287 -20 -45 -22 -62 -19 -218 4 -167 4
-171 -18 -185 -49 -33 -138 10 -173 82 -64 132 47 316 409 674 119 118 209
210 201 205 -8 -4 -58 -37 -110 -73 -173 -118 -312 -165 -464 -159 -76 2 -100
8 -148 32 -74 37 -141 105 -178 180 -26 52 -30 70 -30 146 0 137 43 206 170
270 93 47 172 64 300 64 107 0 203 -16 368 -60 41 -11 23 12 -61 79 -120 95
-203 188 -243 271 -32 66 -34 77 -34 173 0 83 5 115 24 169 45 123 132 223
243 279 93 46 167 54 272 30z"/>
<path d="M2822 12502 c-10 -7 25 -110 153 -450 91 -243 205 -539 253 -659 l87
-218 110 0 110 0 48 120 c81 201 258 626 290 698 l31 69 17 -34 c9 -18 88
-206 174 -418 87 -212 164 -397 171 -412 14 -28 16 -28 114 -28 84 0 101 3
109 18 48 91 505 1298 496 1312 -4 6 -59 10 -135 10 -112 0 -129 -2 -135 -17
-4 -10 -42 -115 -85 -233 -93 -255 -192 -519 -215 -575 l-17 -39 -15 27 c-7
15 -61 143 -119 285 -58 141 -132 323 -166 405 l-60 147 -102 0 c-55 0 -106
-4 -113 -8 -10 -6 -183 -423 -321 -772 -16 -41 -34 -76 -39 -77 -5 -2 -84 189
-174 424 l-165 428 -144 2 c-80 2 -151 -1 -158 -5z"/>
<path d="M5445 12498 c-3 -7 -4 -308 -3 -668 l3 -655 155 0 155 0 0 665 0 665
-153 3 c-116 2 -154 0 -157 -10z"/>
<path d="M6445 12498 c-3 -7 -4 -308 -3 -668 l3 -655 135 0 135 0 3 448 c1
246 6 447 10 447 5 0 138 -111 298 -247 159 -135 398 -338 532 -450 l242 -204
108 3 107 3 0 665 0 665 -137 3 -138 3 0 -451 c0 -247 -3 -450 -6 -450 -3 0
-65 51 -137 113 -73 62 -289 245 -482 406 -192 162 -373 314 -402 338 l-51 43
-106 0 c-76 0 -108 -4 -111 -12z"/>
<path d="M9014 12178 c-391 -693 -555 -991 -546 -1000 5 -5 73 -7 152 -6 l143
3 77 140 76 140 424 0 424 0 80 -140 81 -140 168 -3 c126 -2 167 1 167 10 0
19 -194 365 -593 1058 l-152 265 -156 3 -156 2 -189 -332z m424 -108 c38 -69
95 -175 126 -237 l56 -112 -33 -6 c-44 -8 -504 -2 -513 7 -7 7 122 253 218
415 42 71 52 83 63 72 7 -8 45 -70 83 -139z"/>
<path d="M7893 8434 c-222 -37 -423 -156 -488 -288 -33 -68 -58 -204 -50 -275
15 -137 91 -204 291 -256 112 -29 193 -32 320 -10 138 24 239 54 364 108 147
63 170 70 176 53 4 -11 -14 -100 -61 -301 -2 -12 -35 -38 -80 -65 -104 -61
-178 -122 -248 -205 -161 -192 -278 -469 -308 -735 -13 -114 -5 -324 16 -438
45 -235 174 -499 343 -700 34 -41 62 -81 62 -90 0 -20 -110 -125 -167 -159
l-43 -25 -82 35 c-259 110 -586 109 -718 -2 -34 -28 -35 -31 -34 -95 1 -59 4
-70 30 -97 61 -64 194 -109 324 -109 88 0 147 17 304 83 48 20 64 23 80 15 30
-16 198 -189 247 -253 l41 -54 -26 -98 c-67 -254 -50 -531 38 -619 72 -72 198
-51 260 43 90 136 68 354 -65 670 -22 51 -39 101 -39 112 0 35 214 261 248
261 6 0 64 -25 129 -56 306 -145 446 -160 596 -65 59 38 87 83 87 139 0 77
-45 144 -124 184 -34 17 -59 20 -210 20 -198 0 -255 -11 -395 -72 l-95 -41
-65 45 c-81 55 -171 140 -171 161 0 9 18 49 39 90 75 142 133 358 167 625 15
119 16 197 10 645 -3 281 -9 569 -13 642 l-6 131 41 11 c45 12 111 2 163 -25
48 -24 95 -110 113 -205 6 -34 4 -38 -49 -80 -58 -46 -85 -89 -85 -134 0 -70
68 -125 128 -104 38 13 56 50 76 158 16 84 28 111 52 111 21 0 26 -16 35 -133
15 -188 63 -410 191 -892 44 -165 82 -322 85 -350 4 -46 1 -57 -48 -140 -63
-108 -98 -190 -99 -228 0 -59 62 -127 117 -127 29 0 79 44 106 94 20 38 22 55
22 216 l0 175 71 135 c77 144 142 290 195 435 18 50 38 99 45 109 13 18 14 18
24 -10 16 -40 93 -355 120 -486 l22 -107 -50 -93 c-93 -172 -118 -267 -87
-332 34 -72 125 -123 174 -97 28 16 57 74 72 149 10 50 11 84 0 175 -6 62 -14
122 -17 134 -4 13 15 49 59 114 128 188 149 251 203 604 20 132 38 242 39 244
2 2 38 -11 79 -28 136 -57 139 -41 12 69 l-93 82 -6 181 c-4 152 -9 192 -27
245 -43 123 -117 202 -189 202 -48 0 -78 -22 -91 -68 -27 -100 13 -237 130
-442 46 -80 50 -93 50 -151 0 -141 -48 -440 -95 -597 -35 -113 -86 -242 -96
-242 -10 0 -31 71 -115 393 l-68 258 12 72 c44 265 41 540 -9 673 -26 70 -98
144 -140 144 -43 0 -75 -40 -90 -108 -11 -54 -8 -74 55 -392 l67 -335 -120
-355 c-128 -382 -156 -454 -164 -430 -3 8 -22 94 -41 191 -20 96 -75 317 -122
490 -98 360 -124 472 -124 548 0 51 3 57 50 107 100 105 139 240 92 316 -36
58 -92 73 -149 38 -55 -33 -63 -62 -63 -219 0 -132 -1 -141 -22 -161 -36 -34
-41 -28 -88 95 -53 143 -112 188 -257 201 -99 8 -94 -13 -58 224 14 91 25 171
25 177 0 34 -112 2 -334 -93 -222 -95 -379 -131 -523 -120 -218 18 -323 103
-323 261 0 97 57 192 160 264 102 72 153 86 310 85 180 -1 370 -30 715 -109
378 -86 458 -97 695 -98 211 -1 258 6 410 55 116 37 151 55 219 108 55 43 149
162 133 168 -5 1 -56 -22 -113 -52 -235 -124 -321 -147 -558 -147 -200 0 -314
20 -655 111 -481 129 -659 152 -883 114z m1303 -940 c16 -23 16 -29 0 -87 -20
-72 -63 -144 -77 -130 -5 5 -11 50 -12 99 -1 72 2 96 16 117 22 34 52 35 73 1z
m528 -142 c35 -69 40 -123 26 -284 -12 -133 -24 -198 -35 -186 -13 13 -77 363
-78 429 -3 122 37 140 87 41z m396 18 c26 -14 37 -64 46 -196 7 -127 -1 -163
-29 -120 -31 47 -77 201 -77 258 0 70 13 83 60 58z m-1710 -247 c0 -109 9
-326 21 -483 17 -230 20 -351 17 -635 -3 -334 -5 -353 -26 -414 -32 -89 -100
-221 -117 -228 -21 -8 -46 26 -114 157 -143 276 -204 521 -204 825 -1 261 29
396 138 623 69 143 129 234 199 300 87 82 86 84 86 -145z m494 -97 c8 -31 -3
-83 -20 -97 -7 -6 -23 -9 -36 -7 -37 5 -36 49 2 92 38 42 46 44 54 12z m1043
-1422 c7 -27 13 -77 13 -112 0 -54 -4 -67 -25 -87 -31 -32 -50 -31 -85 3 -26
27 -27 32 -19 75 8 43 48 135 72 165 17 21 30 8 44 -44z m-597 -141 c0 -105
-3 -114 -38 -132 -19 -10 -26 -8 -47 13 -14 14 -25 33 -25 43 1 41 77 173 101
173 5 0 9 -43 9 -97z m-902 -396 l93 -69 -113 -112 -113 -112 -39 46 c-22 25
-70 76 -108 113 l-68 68 32 27 c17 15 63 53 102 84 81 67 57 72 214 -45z m732
11 c85 -14 164 -49 186 -83 16 -25 16 -30 3 -53 -39 -71 -145 -102 -277 -83
-114 16 -362 113 -362 141 0 21 156 84 230 93 43 5 133 -1 220 -15z m-1562
-34 c95 -31 176 -74 180 -95 4 -21 -91 -66 -176 -84 -75 -16 -148 -9 -244 24
-111 38 -134 73 -80 124 66 64 187 76 320 31z m711 -702 c58 -158 96 -332 85
-391 -8 -36 -49 -81 -75 -81 -36 0 -79 52 -105 129 -22 62 -26 92 -26 185 0
108 18 221 43 268 l11 21 18 -22 c9 -13 31 -62 49 -109z"/>
<path d="M10833 7856 c-34 -31 -37 -39 -41 -97 -4 -74 56 -2298 65 -2376 6
-57 37 -100 53 -74 17 29 30 411 57 1695 l17 839 -28 23 c-39 34 -79 31 -123
-10z"/>
<path d="M10834 4761 c-82 -50 -62 -174 33 -197 54 -14 123 46 123 107 0 32
-32 74 -70 94 -37 19 -49 19 -86 -4z"/>
<path d="M4347 6726 c-3 -8 6 -32 20 -53 14 -20 28 -58 32 -82 4 -31 11 -47
23 -49 26 -5 41 34 33 86 -10 70 -91 142 -108 98z"/>
<path d="M4780 6510 c-19 -10 -55 -19 -80 -20 -53 0 -75 -12 -67 -34 19 -49
132 -43 185 10 53 53 29 81 -38 44z"/>
<path d="M4165 6421 c-56 -33 -93 -115 -60 -128 13 -5 28 5 54 36 32 38 43 43
91 49 41 5 56 11 58 24 7 38 -92 51 -143 19z"/>
<path d="M4547 6243 c-4 -3 -7 -12 -7 -18 0 -16 134 -155 149 -155 43 0 -10
107 -77 154 -39 27 -54 31 -65 19z"/>
</g>
</svg>
